<svg width="16" height="16" viewBox="0 0 16 16" fill="none" xmlns="http://www.w3.org/2000/svg">
<g clip-path="url(#clip0_3998_10046)">
<path d="M15.8047 14.862L11.2547 10.312C12.1687 9.18754 12.6674 7.78244 12.6667 6.33333C12.6667 2.84133 9.82533 0 6.33333 0C2.84133 0 0 2.84133 0 6.33333C0 9.82533 2.84133 12.6667 6.33333 12.6667C7.84 12.6667 9.22333 12.136 10.312 11.2547L14.862 15.8047C14.9238 15.8668 14.9972 15.9161 15.0781 15.9497C15.159 15.9834 15.2457 16.0007 15.3333 16.0007C15.4209 16.0007 15.5077 15.9834 15.5886 15.9497C15.6695 15.9161 15.7429 15.8668 15.8047 15.8047C15.8666 15.7428 15.9158 15.6693 15.9493 15.5885C15.9829 15.5076 16.0001 15.4209 16.0001 15.3333C16.0001 15.2458 15.9829 15.1591 15.9493 15.0782C15.9158 14.9973 15.8666 14.9239 15.8047 14.862ZM6.33333 11.3333C3.576 11.3333 1.33333 9.09067 1.33333 6.33333C1.33333 3.576 3.576 1.33333 6.33333 1.33333C9.09067 1.33333 11.3333 3.576 11.3333 6.33333C11.3333 9.09067 9.09067 11.3333 6.33333 11.3333Z" fill="#4B4B4B"/>
</g>
<defs>
<clipPath id="clip0_3998_10046">
<rect width="16" height="16" fill="white"/>
</clipPath>
</defs>
</svg>
